<?xml version="1.0" encoding="UTF-8"?>
<svg xmlns="http://www.w3.org/2000/svg" viewBox="0 0 52.25 155.92">
  <defs>
    <style>
      .cls-1 {
        fill: #231f20;
        stroke-width: 0px;
      }
    </style>
  </defs>
  <path class="cls-1" d="M48.24,152.99c-1.52-.32-3.1-.81-4.32-1.4-.63-.31-1.25-.65-1.84-1.04-.7-.45-.93-.63-1.5-1.12-2.12-1.85-3.47-3.91-4.64-6.57-.13-.29-.15-.35-.31-.77-.14-.36-.27-.72-.4-1.09-.25-.72-.47-1.45-.67-2.19-.42-1.54-.75-3.1-1.02-4.68-.54-3.19-.84-6.51-1.07-9.87-.48-6.96-.63-13.96-1.74-20.86-.58-3.6-1.45-7.18-3.08-10.46-1.75-3.51-4.41-6.42-7.57-8.71-2.93-2.12-6.23-3.64-9.53-5.08-1.67-.73-3.35-1.45-5.01-2.21-.72-.33-1.83-.72-2.35-1.13-.02-.01-.24-.39-.2-.37.1.06-.09,0,0-.08l-.02.15-.43.54s-.51.07-.36.11c.16.05.38-.05.56-.07,2.68-.39,5.29-1.29,7.78-2.33,3.21-1.35,6.28-3.04,9.06-5.13,3.03-2.28,5.76-4.97,7.78-8.21,1.86-2.98,2.77-6.25,3.36-9.68,1.13-6.53,1.51-13.16,2.19-19.74.35-3.33.71-6.31,1.33-9.6.56-2.95,1.29-5.89,2.41-8.68.02-.06.19-.47.1-.25.07-.15.13-.31.2-.46.15-.32.3-.64.46-.96.3-.6.62-1.18.98-1.75.17-.27.34-.53.52-.79.09-.13.18-.25.27-.38.04-.05.08-.11.12-.16.1-.14-.13.16.05-.06.38-.47.78-.93,1.21-1.36.21-.21.43-.42.65-.61.11-.1.23-.19.34-.29.07-.05.13-.11.2-.16.18-.14-.18.14,0,0,.5-.37,1.02-.7,1.57-1,.27-.14.54-.28.82-.41.06-.03.12-.05.18-.08.21-.09-.21.08,0,0,.17-.06.33-.13.5-.19.63-.22,1.28-.4,1.93-.53.16-.03.33-.06.49-.09.07-.01.51-.08.25-.04.32-.04.65-.07.98-.1.77-.05,1.55-.06,2.32-.02,1.93.08,1.93-2.92,0-3-3.02-.13-6.06.36-8.77,1.75-2.41,1.24-4.36,3.2-5.86,5.43-3.4,5.07-4.63,11.45-5.48,17.39-.98,6.82-1.37,13.69-2.18,20.53-.34,2.9-.73,6.11-1.62,9.11-1.02,3.44-3.09,6.47-5.62,9s-5.49,4.56-8.66,6.23c-2.73,1.44-5.4,2.53-8.45,3.29-.57.14-1.15.27-1.73.36-.13.02-.25.04-.38.06-.04,0-.23.03-.01,0,.32-.05-.28.04-.21.03-.62.1-1.16.4-1.5.94-.57.92-.34,2.11.16,3s1.33,1.35,2.24,1.79c3.36,1.62,6.85,2.96,10.2,4.61,3.24,1.59,6.32,3.45,8.79,6.08,2.69,2.86,4.29,6.42,5.23,10.19,1.66,6.59,1.86,13.4,2.26,20.26s.73,13.87,2.72,20.47c1.75,5.82,5.13,11.21,10.82,13.81,1.5.69,3.06,1.2,4.68,1.54.79.17,1.62-.23,1.85-1.05.2-.74-.25-1.68-1.05-1.85h0Z"/>
</svg>