<?xml version="1.0" encoding="utf-8"?>
<!-- Generator: Adobe Illustrator 28.3.0, SVG Export Plug-In . SVG Version: 6.00 Build 0)  -->
<svg version="1.1" id="Layer_1" xmlns="http://www.w3.org/2000/svg" xmlns:xlink="http://www.w3.org/1999/xlink" x="0px" y="0px"
	 viewBox="0 0 342.6 305.6" style="enable-background:new 0 0 342.6 305.6;" xml:space="preserve">
<style type="text/css">
	.st0{fill:#EFE77F;stroke:#000000;stroke-width:4.6017;stroke-miterlimit:10;}
	.st1{fill:#F5EC43;stroke:#000000;stroke-width:4.6017;stroke-miterlimit:10;}
	.st2{fill:#FFFFFF;}
</style>
<g>
	<g>
		<path class="st0" d="M125.7,205.1c-49.9-44.3,14.7-134.2,73.8-107.6c30.9,18.8,39.4,69.4,17.5,98
			C195.8,218.3,149.7,228.3,125.7,205.1z"/>
		<path class="st1" d="M147.1,114.1c-20.7-0.3-24.1,37.5-7.1,44.2C167.9,166.9,171.3,116.9,147.1,114.1z"/>
		<path d="M147.1,114.1c24.2,2.8,20.9,52.8-7.1,44.2C123,151.6,126.3,113.8,147.1,114.1z M146.3,155.2c3.7-0.9,9.3-2.2,10.5-6.6
			C170.8,121.4,111.6,151.4,146.3,155.2z M147.4,130.7c18.9-0.2-0.3-20.3-7.4-8.9C140.6,125.7,142.9,130.5,147.4,130.7z"/>
		<path class="st2" d="M146.3,155.2c-34.7-3.7,24.5-33.7,10.5-6.6C155.6,152.9,150,154.2,146.3,155.2z"/>
		<path class="st2" d="M147.4,130.7c-9.4-1.8-9.7-14.5,1.6-12.3C157,123.4,158.9,130.1,147.4,130.7z"/>
	</g>
	<path d="M204.1,107c-26.9-2.7-32.7,49.5-1.8,46.7c0.9-0.1,1.8-0.1,2.6-0.2c20.3-1.4,17.3-33.3,4.2-44.4
		C207.7,107.9,205.9,107.2,204.1,107z"/>
	<path class="st2" d="M198,150.5c-8.1,0-10.8-9.5-8.6-11.4c6.5-5.8,14.7-9.9,23.2-6.2c0,0,1.9,0.7,1.9,2.9
		C214.5,144.4,212.5,150.5,198,150.5z"/>
	<path class="st2" d="M205.1,111.2c9.8,5,3,9.5-3.3,9.5c-2.7,0-4.5-1.3-6.3-2.9c-2-1.8-1.4-5.3,1-6.2
		C199.4,110.6,203.2,110.4,205.1,111.2z"/>
	<g>
		<g>
			<path d="M165.3,176.7c0.1-0.4,0.3-0.8,0.4-1.2c0-0.1,0.1-0.2,0.1-0.3c0,0,0.1-0.3,0-0.1c-0.1,0.2,0-0.1,0-0.1
				c0.1-0.1,0.1-0.3,0.2-0.4c0.4-0.8,0.8-1.5,1.2-2.3c0.1-0.2,0.2-0.3,0.3-0.4c0.3-0.4-0.2,0.2,0.1-0.1c0.3-0.3,0.5-0.6,0.8-0.9
				c0.1-0.1,0.1-0.1,0.2-0.2c0.2-0.2-0.3,0.2-0.1,0.1c0.1-0.1,0.3-0.2,0.4-0.3c0.1,0,0.1-0.1,0.2-0.1c0.1-0.1,0.1-0.1,0,0
				c-0.1,0.2-0.1,0,0.1,0c0.1,0,0.2-0.1,0.3-0.1c0.1,0,0.6-0.1,0.2-0.1c-0.4,0.1,0,0,0.2,0c0.1,0,0.2,0,0.3,0c0.1,0,0.3,0-0.1,0
				c-0.4-0.1,0,0,0,0c0.2,0.1,0.4,0.1,0.7,0.2c0.1,0,0.2,0.1,0.2,0.1c0,0-0.5-0.2-0.3-0.1c0.1,0.1,0.3,0.1,0.4,0.2
				c0.2,0.1,0.5,0.3,0.7,0.4c0.1,0.1,0.3,0.2,0.4,0.3c0.1,0,0.1,0.1,0.2,0.1c0.2,0.2-0.4-0.3-0.1-0.1c0.5,0.4,1,0.8,1.4,1.2
				c1.9,1.7,3.7,3.8,6.1,4.8c2.3,1,4.9,1,7.1-0.4c3.1-2.1,4.8-5.7,6.2-9.1c0.4-1.1-0.5-2.6-1.6-2.8c-1.3-0.3-2.4,0.4-2.8,1.6
				c-0.1,0.2-0.2,0.5-0.3,0.7c0.1-0.3-0.1,0.3-0.2,0.4c-0.2,0.4-0.4,0.9-0.6,1.3c-0.4,0.7-0.8,1.4-1.2,2.1c-0.1,0.1-0.2,0.3-0.3,0.4
				c0,0.1-0.1,0.1-0.1,0.2c-0.1,0.2,0.1-0.2,0.1-0.2c-0.2,0-0.5,0.6-0.6,0.7c-0.2,0.2-0.4,0.4-0.6,0.5c-0.1,0.1-0.2,0.1-0.3,0.2
				c-0.2,0.2,0.4-0.3,0.2-0.2c-0.1,0-0.1,0.1-0.2,0.1c-0.2,0.1-0.4,0.2-0.5,0.3c-0.1,0-0.2,0.1-0.2,0.1c-0.4,0.2,0.4-0.1,0.1-0.1
				c-0.3,0.1-0.7,0.2-1,0.3c0,0,0.7,0,0.3,0c-0.1,0-0.1,0-0.2,0c-0.1,0-0.2,0-0.4,0c-0.1,0-0.1,0-0.2,0c-0.3,0,0-0.1,0.3,0
				c-0.1-0.1-0.3-0.1-0.4-0.1c-0.1,0-0.2-0.1-0.3-0.1c-0.1,0-0.2-0.1-0.2-0.1c-0.2-0.1,0.3,0.1,0.3,0.1c-0.2-0.2-0.5-0.3-0.8-0.4
				c-0.2-0.1-0.4-0.3-0.7-0.4c-0.1-0.1-0.3-0.2-0.4-0.3c-0.2-0.1,0.2,0.2,0.2,0.2c-0.1-0.1-0.1-0.1-0.2-0.2c-0.5-0.4-1-0.8-1.4-1.3
				c-0.9-0.9-1.8-1.8-2.8-2.6c-2.2-1.8-4.9-3.4-7.8-2.5c-4.1,1.2-6.1,5.8-7.4,9.5c-0.4,1.1,0.5,2.6,1.6,2.8
				C163.7,178.6,164.8,177.9,165.3,176.7L165.3,176.7z"/>
		</g>
	</g>
</g>
</svg>